
<svg xmlns="http://www.w3.org/2000/svg" width="160" height="160" viewBox="0 0 160 160" fill="none">
  <path d="M80 12C42.98 12 12 42.98 12 80C12 117.02 42.98 148 80 148C117.02 148 148 117.02 148 80C148 42.98 117.02 12 80 12ZM80 28C88.84 28 96 35.16 96 44C96 52.84 88.84 60 80 60C71.16 60 64 52.84 64 44C64 35.16 71.16 28 80 28ZM114.8 105.6C108.4 118.4 95.2 128 80 128C64.8 128 51.68 118.48 45.2 105.6C44.56 104.32 44.48 102.88 45.04 101.6C51.76 86.96 65.04 76 80 76C94.96 76 108.24 86.96 114.96 101.6C115.52 102.88 115.44 104.32 114.8 105.6Z" fill="url(#paint0_linear_1_2)"/>
  <defs>
    <linearGradient id="paint0_linear_1_2" x1="12" y1="80" x2="148" y2="80" gradientUnits="userSpaceOnUse">
      <stop stop-color="#7E69AB"/>
      <stop offset="1" stop-color="#9B87F5"/>
    </linearGradient>
  </defs>
</svg>
